<svg width="45" height="45" viewBox="0 0 45 45" fill="none" xmlns="http://www.w3.org/2000/svg">
<g id="Figma-logo 2">
<path id="path0_fill" d="M15.5951 44.4797C19.6872 44.4797 23.0084 41.1586 23.0084 37.0664V29.6531H15.5951C11.503 29.6531 8.18182 32.9743 8.18182 37.0664C8.18182 41.1586 11.503 44.4797 15.5951 44.4797Z" fill="#939393"/>
<path id="path1_fill" d="M8.18182 22.2398C8.18182 18.1477 11.503 14.8265 15.5951 14.8265H23.0084V29.6531H15.5951C11.503 29.6531 8.18182 26.332 8.18182 22.2398Z" fill="#939393"/>
<path id="path1_fill_1_" d="M8.18182 7.41329C8.18182 3.32115 11.503 0 15.5951 0H23.0084V14.8266H15.5951C11.503 14.8266 8.18182 11.5054 8.18182 7.41329Z" fill="#939393"/>
<path id="path2_fill" d="M23.0084 0H30.4217C34.5138 0 37.8349 3.32115 37.8349 7.41329C37.8349 11.5054 34.5138 14.8266 30.4217 14.8266H23.0084V0Z" fill="#939393"/>
<path id="path3_fill" d="M37.8349 22.2398C37.8349 26.332 34.5138 29.6531 30.4217 29.6531C26.3295 29.6531 23.0084 26.332 23.0084 22.2398C23.0084 18.1477 26.3295 14.8265 30.4217 14.8265C34.5138 14.8265 37.8349 18.1477 37.8349 22.2398Z" fill="#939393"/>
</g>
</svg>
