<svg width="45" height="45" viewBox="0 0 45 45" fill="none" xmlns="http://www.w3.org/2000/svg">
<g clip-path="url(#clip0_46_31)">
<path d="M15.5951 44.4797C19.6872 44.4797 23.0083 41.1586 23.0083 37.0665V29.6532H15.5951C11.5029 29.6532 8.18176 32.9743 8.18176 37.0665C8.18176 41.1586 11.5029 44.4797 15.5951 44.4797Z" fill="#939393"/>
<path d="M8.18176 22.2398C8.18176 18.1477 11.5029 14.8266 15.5951 14.8266H23.0083V29.6531H15.5951C11.5029 29.6531 8.18176 26.332 8.18176 22.2398Z" fill="#939393"/>
<path d="M8.18176 7.41329C8.18176 3.32115 11.5029 0 15.5951 0H23.0083V14.8266H15.5951C11.5029 14.8266 8.18176 11.5054 8.18176 7.41329Z" fill="#939393"/>
<path d="M23.0084 0H30.4217C34.5138 0 37.835 3.32115 37.835 7.41329C37.835 11.5054 34.5138 14.8266 30.4217 14.8266H23.0084V0Z" fill="#939393"/>
<path d="M37.835 22.2398C37.835 26.332 34.5138 29.6531 30.4217 29.6531C26.3296 29.6531 23.0084 26.332 23.0084 22.2398C23.0084 18.1477 26.3296 14.8266 30.4217 14.8266C34.5138 14.8266 37.835 18.1477 37.835 22.2398Z" fill="#939393"/>
<path d="M15.5951 44.4797C19.6872 44.4797 23.0083 41.1586 23.0083 37.0665V29.6532H15.5951C11.5029 29.6532 8.18176 32.9743 8.18176 37.0665C8.18176 41.1586 11.5029 44.4797 15.5951 44.4797Z" fill="#EDECEC"/>
<path d="M8.18176 22.2398C8.18176 18.1477 11.5029 14.8266 15.5951 14.8266H23.0083V29.6531H15.5951C11.5029 29.6531 8.18176 26.332 8.18176 22.2398Z" fill="#EDECEC"/>
<path d="M8.18176 7.41329C8.18176 3.32115 11.5029 0 15.5951 0H23.0083V14.8266H15.5951C11.5029 14.8266 8.18176 11.5054 8.18176 7.41329Z" fill="#EDECEC"/>
<path d="M23.0084 0H30.4217C34.5138 0 37.835 3.32115 37.835 7.41329C37.835 11.5054 34.5138 14.8266 30.4217 14.8266H23.0084V0Z" fill="#EDECEC"/>
<path d="M37.835 22.2398C37.835 26.332 34.5138 29.6531 30.4217 29.6531C26.3296 29.6531 23.0084 26.332 23.0084 22.2398C23.0084 18.1477 26.3296 14.8266 30.4217 14.8266C34.5138 14.8266 37.835 18.1477 37.835 22.2398Z" fill="#EDECEC"/>
</g>
<defs>
<clipPath id="clip0_46_31">
<rect width="45" height="45" fill="white"/>
</clipPath>
</defs>
</svg>
