<svg width="41" height="41" viewBox="0 0 41 41" fill="none" xmlns="http://www.w3.org/2000/svg">
<g id="Maple_Leaf 1" clip-path="url(#clip0_76_191)">
<path id="Vector" d="M12.4102 33.1458L15.9124 27.7496C15.9695 27.6606 16.0058 27.5599 16.0188 27.4549C16.0317 27.3499 16.021 27.2434 15.9873 27.1431C15.9537 27.0429 15.898 26.9514 15.8243 26.8756C15.7506 26.7997 15.6608 26.7413 15.5616 26.7047L9.46173 24.4809L11.4006 22.8497C11.4784 22.7851 11.5339 22.6978 11.5595 22.6001C11.5851 22.5023 11.5795 22.399 11.5434 22.3046L8.31316 13.8896L10.0484 14.0405C10.1659 14.0502 10.2828 14.0166 10.3774 13.9461C10.4719 13.8757 10.5374 13.7731 10.5616 13.6577L11.4915 9.27784L14.5577 12.0366C14.641 12.111 14.7474 12.1543 14.8589 12.1592C14.9705 12.164 15.0803 12.1302 15.1697 12.0633L16.766 10.8618L17.8032 15.3631C17.8276 15.4649 17.8843 15.556 17.9649 15.6228C18.0454 15.6896 18.1454 15.7285 18.25 15.7336C18.3545 15.7388 18.4579 15.7099 18.5446 15.6513C18.6313 15.5928 18.6967 15.5076 18.731 15.4088L21.3314 7.86738L22.7361 10.303C22.7688 10.3605 22.813 10.4108 22.866 10.4506C22.919 10.4904 22.9795 10.5189 23.044 10.5343C23.1084 10.5498 23.1753 10.5518 23.2405 10.5403C23.3058 10.5288 23.368 10.5041 23.4232 10.4676L27.9904 7.5L27.7039 12.9391C27.7 13.0052 27.7096 13.0714 27.7323 13.1337C27.755 13.1959 27.7902 13.2528 27.8358 13.3009C27.8814 13.349 27.9363 13.3872 27.9973 13.4131C28.0582 13.4391 28.1239 13.4523 28.1901 13.4518L31.0017 13.4505L25.7709 19.4733C25.7024 19.5524 25.6614 19.6516 25.654 19.756C25.6467 19.8604 25.6733 19.9643 25.7301 20.0523C25.7868 20.1402 25.8705 20.2074 25.9686 20.2438C26.0668 20.2801 26.174 20.2837 26.2743 20.2539L30.6912 18.9015L30.4488 20.8847C30.4356 20.9955 30.4612 21.1076 30.5212 21.2017C30.5812 21.2959 30.6719 21.3664 30.7779 21.4014L34.7002 22.6773L31.372 25.6726C31.2842 25.7513 31.2282 25.8593 31.2144 25.9764C31.2006 26.0935 31.23 26.2116 31.2972 26.3085L32.2954 27.7358L23.3927 29.1458C23.2929 29.1617 23.2006 29.2085 23.1288 29.2796C23.0569 29.3506 23.0091 29.4424 22.9921 29.542L22.5488 32.0367L17.573 27.866C17.4917 27.7984 17.3963 27.7498 17.2937 27.7239C17.1912 27.6981 17.0841 27.6955 16.9805 27.7165C16.8768 27.7375 16.7792 27.7814 16.6947 27.8452C16.6103 27.9089 16.5413 27.9907 16.4927 28.0846L13.5706 33.8157L12.4102 33.1458Z" fill="#FF0000"/>
</g>
<defs>
<clipPath id="clip0_76_191">
<rect width="30" height="30" fill="white" transform="translate(15) rotate(30)"/>
</clipPath>
</defs>
</svg>
