<svg width="20" height="22" viewBox="0 0 20 22" fill="none" xmlns="http://www.w3.org/2000/svg">
<g clip-path="url(#clip0_1175_4019)">
<path d="M0 1H16.8C17.6487 1 18.4626 1.33714 19.0627 1.93726C19.6629 2.53737 20 3.35131 20 4.2V17.8C20 18.6487 19.6629 19.4626 19.0627 20.0627C18.4626 20.6629 17.6487 21 16.8 21H3.2C2.35131 21 1.53737 20.6629 0.937258 20.0627C0.337142 19.4626 0 18.6487 0 17.8L0 1Z" fill="#BBBBBB"/>
<path d="M16.3308 19.3979C15.683 19.3979 15.1876 19.2095 14.8408 18.8309C14.4978 18.4503 14.3192 17.9073 14.3032 17.1981H15.6992C15.7072 17.8253 15.9276 18.1397 16.3608 18.1397C16.5816 18.1397 16.738 18.0697 16.8282 17.9313C16.9164 17.7933 16.9626 17.5727 16.9626 17.2703C16.9626 17.0299 16.9024 16.8295 16.786 16.6713C16.628 16.4832 16.4253 16.3378 16.1964 16.2485L15.679 15.9999C15.2178 15.7795 14.8828 15.5191 14.6762 15.2145C14.4756 14.9119 14.3754 14.4873 14.3754 13.9445C14.3754 13.3373 14.552 12.8445 14.9028 12.4657C15.2638 12.0871 15.7552 11.8989 16.3828 11.8989C16.9888 11.8989 17.458 12.0851 17.7888 12.4557C18.1258 12.8285 18.3022 13.3613 18.3164 14.0585H16.9726C16.9806 13.8305 16.9346 13.6041 16.8382 13.3973C16.7622 13.2453 16.6136 13.1691 16.393 13.1691C16 13.1691 15.8034 13.4033 15.8034 13.8701C15.8034 14.1067 15.8514 14.2909 15.9478 14.4311C16.0866 14.5862 16.2606 14.7058 16.4552 14.7799L16.9506 14.9983C17.462 15.2327 17.831 15.5193 18.0576 15.8659C18.2862 16.2105 18.3986 16.6713 18.3986 17.2483C18.3986 17.9395 18.218 18.4703 17.851 18.8409C17.486 19.2115 16.9786 19.3979 16.331 19.3979H16.3308ZM11.8224 19.3979C11.1744 19.3979 10.6792 19.2095 10.3322 18.8309C9.98917 18.4503 9.81077 17.9073 9.79477 17.1981H11.1906C11.1986 17.8253 11.4192 18.1397 11.8526 18.1397C12.073 18.1397 12.2294 18.0697 12.3176 17.9313C12.408 17.7933 12.452 17.5727 12.452 17.2703C12.452 17.0299 12.394 16.8295 12.2776 16.6713C12.1196 16.4832 11.9169 16.3378 11.688 16.2485L11.1706 15.9999C10.7092 15.7795 10.3744 15.5191 10.1678 15.2145C9.96717 14.9119 9.86697 14.4873 9.86697 13.9445C9.86697 13.3373 10.0434 12.8445 10.3944 12.4657C10.7554 12.0871 11.2468 11.8989 11.8744 11.8989C12.4802 11.8989 12.9494 12.0851 13.2784 12.4557C13.6194 12.8285 13.7938 13.3613 13.8078 14.0585H12.4642C12.4722 13.8305 12.4262 13.6041 12.3298 13.3973C12.2536 13.2453 12.1052 13.1691 11.8846 13.1691C11.4914 13.1691 11.2948 13.4033 11.2948 13.8701C11.2948 14.1067 11.343 14.2909 11.4392 14.4311C11.578 14.5862 11.752 14.7058 11.9466 14.7799L12.442 14.9983C12.9534 15.2327 13.3224 15.5193 13.5492 15.8659C13.7758 16.2105 13.89 16.6713 13.89 17.2483C13.89 17.9395 13.7076 18.4703 13.3426 18.8409C12.9776 19.2115 12.4702 19.3979 11.8224 19.3979ZM7.12737 19.3979C6.49337 19.3979 5.99017 19.2255 5.61717 18.8809C5.24417 18.5385 5.05957 18.0235 5.05957 17.3423V13.9765C5.05957 13.2995 5.25617 12.7865 5.64917 12.4339C6.04837 12.0853 6.57177 11.9091 7.21957 11.9091C7.84737 11.9091 8.34257 12.0893 8.70957 12.4459C9.08077 12.8045 9.26717 13.3375 9.26717 14.0487V14.3151H7.78917V14.0567C7.78917 13.7823 7.72897 13.5799 7.61257 13.4477C7.56173 13.3816 7.49599 13.3285 7.42071 13.2926C7.34543 13.2567 7.26273 13.2392 7.17937 13.2413C6.93877 13.2413 6.76837 13.3233 6.67197 13.4897C6.56936 13.7199 6.52328 13.9713 6.53757 14.2229V17.1481C6.53757 17.7591 6.75237 18.0697 7.17957 18.0757C7.37997 18.0757 7.53037 18.0035 7.63477 17.8593C7.74815 17.6772 7.8021 17.4643 7.78917 17.2501V17.0319H9.26717V17.2603C9.26717 17.7351 9.17497 18.1317 8.98837 18.4483C8.811 18.7573 8.54481 19.0058 8.22437 19.1615C7.88217 19.3249 7.50648 19.4058 7.12737 19.3979Z" fill="black"/>
</g>
<defs>
<clipPath id="clip0_1175_4019">
<rect width="20" height="20" fill="white" transform="translate(0 1)"/>
</clipPath>
</defs>
</svg>
