<svg width="20" height="22" viewBox="0 0 20 22" fill="none" xmlns="http://www.w3.org/2000/svg">
<g clip-path="url(#clip0_1175_4014)">
<g clip-path="url(#clip1_1175_4014)">
<path d="M19.773 9.27809C19.7175 9.23238 19.2178 8.85786 18.1445 8.85786C17.8669 8.85786 17.5801 8.88528 17.3025 8.93095C17.099 7.53324 15.9239 6.85724 15.8776 6.82071L15.5908 6.65625L15.4057 6.92119C15.1744 7.27747 14.9986 7.67942 14.8968 8.09052C14.7025 8.88528 14.8228 9.63437 15.2299 10.2738C14.7395 10.5479 13.9438 10.6118 13.7773 10.6209H0.638462C0.296125 10.6209 0.0185387 10.895 0.0185387 11.233C5.74542e-05 12.3658 0.194344 13.4986 0.592225 14.5674C1.04558 15.7367 1.72105 16.6045 2.5908 17.1344C3.57158 17.7282 5.17227 18.0662 6.97653 18.0662C7.79078 18.0662 8.60499 17.9931 9.40999 17.8469C10.5295 17.6459 11.6029 17.2623 12.5929 16.705C13.4043 16.2406 14.1354 15.6484 14.758 14.9511C15.8036 13.7909 16.4235 12.4937 16.8768 11.3427H17.0619C18.2 11.3427 18.9032 10.895 19.2918 10.5113C19.5509 10.2738 19.7451 9.98151 19.884 9.65265L19.9673 9.41513L19.773 9.27809Z" fill="#BBBBBB"/>
<path d="M1.85993 10.2465H3.61792C3.70121 10.2465 3.77524 10.1826 3.77524 10.0912V8.53825C3.77524 8.45602 3.71046 8.38296 3.61792 8.38296H1.85993C1.77666 8.38296 1.70264 8.44688 1.70264 8.53825V10.0912C1.71188 10.1826 1.77666 10.2465 1.85993 10.2465V10.2465ZM4.28411 10.2465H6.04213C6.1254 10.2465 6.19942 10.1826 6.19942 10.0912V8.53825C6.19942 8.45602 6.13464 8.38296 6.04213 8.38296H4.28408C4.20081 8.38296 4.12678 8.44688 4.12678 8.53825V10.0912C4.13606 10.1826 4.20084 10.2465 4.28408 10.2465M6.75453 10.2465H8.51255C8.59581 10.2465 8.66984 10.1826 8.66984 10.0912V8.53825C8.66984 8.45602 8.60505 8.38296 8.51255 8.38296H6.75453C6.67126 8.38296 6.59724 8.44688 6.59724 8.53825V10.0912C6.59724 10.1826 6.66202 10.2465 6.75453 10.2465ZM9.18798 10.2465H10.946C11.0293 10.2465 11.1033 10.1826 11.1033 10.0912V8.53825C11.1033 8.45602 11.0385 8.38296 10.946 8.38296H9.18798C9.10472 8.38296 9.03069 8.44688 9.03069 8.53825V10.0912C9.03069 10.1826 9.10472 10.2465 9.18798 10.2465ZM4.28411 8.02668H6.0421C6.12536 8.02668 6.19939 7.95362 6.19939 7.87139V6.3184C6.19939 6.23617 6.1346 6.16308 6.0421 6.16308H4.28408C4.20081 6.16308 4.12678 6.22703 4.12678 6.3184V7.87139C4.13606 7.95359 4.20088 8.02668 4.28411 8.02668ZM6.75453 8.02668H8.51255C8.59581 8.02668 8.66984 7.95362 8.66984 7.87139V6.3184C8.66984 6.23617 8.60505 6.16308 8.51255 6.16308H6.75453C6.67126 6.16308 6.59724 6.22703 6.59724 6.3184V7.87139C6.59724 7.95359 6.66202 8.02668 6.75453 8.02668ZM9.18798 8.02668H10.946C11.0293 8.02668 11.1033 7.95362 11.1033 7.87139V6.3184C11.1033 6.23617 11.0292 6.16308 10.946 6.16308H9.18798C9.10472 6.16308 9.03069 6.22703 9.03069 6.3184V7.87139C9.03069 7.95359 9.10472 8.02668 9.18798 8.02668ZM9.18798 5.79769H10.946C11.0293 5.79769 11.1033 5.73374 11.1033 5.6424V4.0894C11.1033 4.00717 11.0292 3.93408 10.946 3.93408H9.18798C9.10472 3.93408 9.03069 3.99803 9.03069 4.0894V5.6424C9.03069 5.7246 9.10472 5.79769 9.18798 5.79769ZM11.6399 10.2465H13.3979C13.4812 10.2465 13.5552 10.1826 13.5552 10.0912V8.53825C13.5552 8.45602 13.4905 8.38296 13.3979 8.38296H11.64C11.5567 8.38296 11.4826 8.44688 11.4826 8.53825V10.0912C11.4919 10.1826 11.5567 10.2465 11.64 10.2465" fill="#BBBBBB"/>
</g>
</g>
<defs>
<clipPath id="clip0_1175_4014">
<rect width="20" height="22" fill="white"/>
</clipPath>
<clipPath id="clip1_1175_4014">
<rect width="19.9672" height="22" fill="white"/>
</clipPath>
</defs>
</svg>
