<svg width="14" height="22" viewBox="0 0 14 22" fill="none" xmlns="http://www.w3.org/2000/svg">
<g clip-path="url(#clip0_1175_4013)">
<g clip-path="url(#clip1_1175_4013)">
<path d="M6.66797 10.9998C6.66797 9.15892 8.16034 7.6665 10.0013 7.6665C11.8422 7.6665 13.3346 9.15892 13.3346 10.9998C13.3346 12.8408 11.8422 14.3332 10.0013 14.3332C8.16034 14.3332 6.66797 12.8408 6.66797 10.9998Z" fill="#BBBBBB"/>
<path d="M0.0012207 17.6668C0.0012207 15.8259 1.49359 14.3335 3.33455 14.3335H6.66789V17.6668C6.66789 19.5078 5.17552 21.0002 3.33455 21.0002C1.49359 21.0002 0.0012207 19.5078 0.0012207 17.6668Z" fill="#BBBBBB"/>
<path d="M6.66797 1V7.66662H10.0013C11.8423 7.66662 13.3346 6.17425 13.3346 4.33329C13.3346 2.49232 11.8423 1 10.0013 1H6.66797Z" fill="#BBBBBB"/>
<path d="M0.00146484 4.33333C0.00146484 6.1743 1.49383 7.66667 3.3348 7.66667H6.66813V1H3.3348C1.49383 1 0.00146484 2.49242 0.00146484 4.33333Z" fill="#BBBBBB"/>
<path d="M0.0012207 10.9998C0.0012207 12.8408 1.49359 14.3332 3.33455 14.3332H6.66789V7.6665H3.33455C1.49359 7.6665 0.0012207 9.15892 0.0012207 10.9998Z" fill="#BBBBBB"/>
</g>
</g>
<defs>
<clipPath id="clip0_1175_4013">
<rect width="13.34" height="22" fill="white"/>
</clipPath>
<clipPath id="clip1_1175_4013">
<rect width="13.336" height="20" fill="white" transform="translate(0 1)"/>
</clipPath>
</defs>
</svg>
