<svg width="22" height="22" viewBox="0 0 22 22" fill="none" xmlns="http://www.w3.org/2000/svg">
<g clip-path="url(#clip0_1175_4015)">
<g clip-path="url(#clip1_1175_4015)">
<path d="M21.5851 10.0198L11.9797 0.414885C11.4269 -0.138295 10.5297 -0.138295 9.97614 0.414885L7.98153 2.40949L10.5118 4.93975C11.0998 4.74106 11.774 4.87435 12.2427 5.34306C12.7137 5.81477 12.846 6.49479 12.6425 7.08467L15.081 9.52323C15.671 9.31999 16.3517 9.45147 16.8229 9.92344C17.4814 10.5817 17.4814 11.6486 16.8229 12.3073C16.1642 12.9661 15.0972 12.9661 14.4382 12.3073C13.9428 11.8115 13.8205 11.084 14.0712 10.4738L11.7972 8.19971L11.7969 14.1841C11.9617 14.2656 12.1123 14.3733 12.2427 14.503C12.9013 15.1612 12.9013 16.2282 12.2427 16.8875C11.584 17.5459 10.5166 17.5459 9.85884 16.8875C9.2003 16.2282 9.2003 15.1613 9.85884 14.503C10.0167 14.3452 10.2042 14.2201 10.4106 14.1352V8.09495C10.2039 8.01055 10.0162 7.88544 9.85884 7.72705C9.35988 7.22878 9.23991 6.49668 9.49558 5.88403L7.00133 3.38953L0.415078 9.97535C-0.138359 10.529 -0.138359 11.4263 0.415078 11.9796L10.0207 21.5846C10.5737 22.1379 11.4707 22.1379 12.0244 21.5846L21.585 12.0242C22.1383 11.4707 22.1384 10.573 21.5851 10.0198Z" fill="#BBBBBB"/>
</g>
</g>
<defs>
<clipPath id="clip0_1175_4015">
<rect width="22" height="22" fill="white"/>
</clipPath>
<clipPath id="clip1_1175_4015">
<rect width="22" height="22" fill="white"/>
</clipPath>
</defs>
</svg>
