<svg width="22" height="22" viewBox="0 0 22 22" fill="none" xmlns="http://www.w3.org/2000/svg">
<g clip-path="url(#clip0_1175_4004)">
<g clip-path="url(#clip1_1175_4004)">
<path d="M0 0H22V22H0V0Z" fill="#BBBBBB"/>
<path d="M20.1993 16.7528C20.0383 15.749 19.3837 14.9062 17.4452 14.1199C16.7718 13.8104 16.021 13.5887 15.7972 13.0784C15.7178 12.7815 15.7073 12.6142 15.7575 12.4343C15.9018 11.8509 16.5982 11.6689 17.1503 11.8362C17.5058 11.9554 17.8425 12.2294 18.0453 12.6665C18.9948 12.0517 18.9927 12.0558 19.6556 11.6334C19.413 11.257 19.2834 11.0834 19.1244 10.9224C18.5535 10.2846 17.7756 9.95622 16.5313 9.98132C16.3159 10.0085 16.0984 10.0378 15.883 10.065C15.2619 10.2218 14.6701 10.548 14.3229 10.9851C13.2815 12.1667 13.5784 14.2349 14.8457 15.0861C16.0942 16.023 17.9282 16.2363 18.1625 17.1125C18.3904 18.1853 17.3741 18.5324 16.364 18.4091C15.6195 18.2543 15.2054 17.8758 14.7579 17.1878C13.934 17.6646 13.934 17.6646 13.087 18.1519C13.2878 18.591 13.499 18.7897 13.8357 19.1703C15.4292 20.7868 19.4172 20.7074 20.1324 18.2606C20.1617 18.1769 20.3541 17.6165 20.1993 16.7528ZM11.9598 10.111H9.902C9.902 11.8885 9.89365 13.6535 9.89365 15.4311C9.89365 16.5625 9.95221 17.5997 9.76818 17.9176C9.46704 18.5429 8.687 18.4655 8.33149 18.3442C7.9697 18.1664 7.78567 17.9134 7.57236 17.5558C7.51381 17.4534 7.46989 17.3739 7.45523 17.3676C6.89689 17.7085 6.34059 18.0514 5.78223 18.3923C6.06038 18.9632 6.47025 19.4589 6.99515 19.7809C7.77937 20.2514 8.83337 20.3957 9.93548 20.1427C10.6528 19.9336 11.2718 19.5007 11.5959 18.8419C12.0644 17.9783 11.964 16.9326 11.9598 15.7762C11.9702 13.8899 11.9598 12.0035 11.9598 10.111Z" fill="black"/>
</g>
</g>
<defs>
<clipPath id="clip0_1175_4004">
<rect width="22" height="22" fill="white"/>
</clipPath>
<clipPath id="clip1_1175_4004">
<rect width="22" height="22" rx="3" fill="white"/>
</clipPath>
</defs>
</svg>
