<svg width="16" height="22" viewBox="0 0 16 22" fill="none" xmlns="http://www.w3.org/2000/svg">
<g clip-path="url(#clip0_1175_4001)">
<g clip-path="url(#clip1_1175_4001)">
<path d="M5.24926 17.0068C5.24926 17.0068 4.41005 17.4949 5.84649 17.66C7.5867 17.8585 8.4761 17.8301 10.3938 17.4671C10.3938 17.4671 10.898 17.7832 11.6021 18.0571C7.30312 19.8995 1.8726 17.9503 5.24926 17.0068Z" fill="#BBBBBB"/>
<path d="M4.72393 14.6025C4.72393 14.6025 3.78268 15.2993 5.22019 15.448C7.07913 15.6397 8.54718 15.6554 11.0875 15.1663C11.0875 15.1663 11.4388 15.5225 11.9913 15.7173C6.79354 17.2372 1.00415 15.8371 4.72393 14.6025Z" fill="#BBBBBB"/>
<path d="M9.15249 10.5239C10.2118 11.7434 8.87418 12.8409 8.87418 12.8409C8.87418 12.8409 11.5639 11.4524 10.3286 9.71367C9.17493 8.0922 8.2902 7.28655 13.0797 4.50879C13.0797 4.50879 5.56174 6.38644 9.15249 10.5239Z" fill="#BBBBBB"/>
<path d="M14.8383 18.7853C14.8383 18.7853 15.4593 19.2971 14.1543 19.6929C11.6729 20.4446 3.82624 20.6716 1.64648 19.7229C0.862917 19.382 2.33233 18.9089 2.79455 18.8097C3.2766 18.7051 3.55207 18.7246 3.55207 18.7246C2.68067 18.1108 -2.08034 19.93 1.13372 20.451C9.89892 21.8724 17.1118 19.8109 14.8383 18.7853Z" fill="#BBBBBB"/>
<path d="M5.6528 12.1115C5.6528 12.1115 1.66151 13.0595 4.23938 13.4037C5.32784 13.5495 7.49766 13.5165 9.51879 13.3472C11.1706 13.2078 12.8291 12.9116 12.8291 12.9116C12.8291 12.9116 12.2467 13.161 11.8253 13.4487C7.77224 14.5147 -0.0575679 14.0188 2.19653 12.9284C4.10283 12.007 5.6528 12.1115 5.6528 12.1115Z" fill="#BBBBBB"/>
<path d="M12.8125 16.1132C16.9327 13.9722 15.0277 11.9148 13.698 12.1919C13.3721 12.2598 13.2268 12.3186 13.2268 12.3186C13.2268 12.3186 13.3478 12.129 13.5789 12.047C16.2094 11.1222 18.2324 14.7746 12.7297 16.2211C12.7297 16.2211 12.7935 16.1642 12.8125 16.1132Z" fill="#BBBBBB"/>
<path d="M10.3286 0.0234375C10.3286 0.0234375 12.6104 2.30601 8.16439 5.81596C4.59916 8.63155 7.35141 10.2369 8.16291 12.0711C6.08183 10.1935 4.55459 8.54057 5.57918 7.0022C7.08304 4.74402 11.2492 3.64917 10.3286 0.0234375Z" fill="#BBBBBB"/>
<path d="M6.05761 21.9151C10.0124 22.1683 16.0855 21.7746 16.2294 19.9033C16.2294 19.9033 15.9529 20.6127 12.9609 21.1761C9.58538 21.8113 5.42214 21.7372 2.95288 21.3301C2.95288 21.3301 3.45837 21.7484 6.05761 21.9151Z" fill="#BBBBBB"/>
</g>
</g>
<defs>
<clipPath id="clip0_1175_4001">
<rect width="16" height="22" fill="white"/>
</clipPath>
<clipPath id="clip1_1175_4001">
<rect width="16.2775" height="22" fill="white"/>
</clipPath>
</defs>
</svg>
