<svg width="22" height="22" viewBox="0 0 22 22" fill="none" xmlns="http://www.w3.org/2000/svg">
<g clip-path="url(#clip0_1175_4010)">
<g clip-path="url(#clip1_1175_4010)">
<path d="M19.8258 17.0632C18.6723 17.0344 17.7783 17.1498 17.0285 17.4669C16.8122 17.5534 16.4662 17.5535 16.4373 17.8275C16.5527 17.9428 16.5671 18.1303 16.668 18.2888C16.8413 18.5772 17.1438 18.9665 17.4178 19.1685C17.7206 19.3991 18.0235 19.6298 18.3406 19.8316C18.9029 20.1777 19.5374 20.3795 20.0853 20.7256C20.4027 20.9273 20.7197 21.1871 21.0369 21.4033C21.1955 21.5185 21.2964 21.7061 21.4984 21.7781V21.735C21.3973 21.6051 21.3685 21.4177 21.2676 21.2735C21.1236 21.1293 20.9792 20.9995 20.835 20.8553C20.4169 20.2931 19.8979 19.8028 19.3356 19.3991C18.8742 19.0819 17.8648 18.6493 17.6774 18.1158C17.6774 18.1158 17.6629 18.1014 17.6485 18.087C17.9657 18.0582 18.3406 17.9428 18.6435 17.8563C19.1337 17.7264 19.5806 17.7554 20.0853 17.6256C20.316 17.5679 20.5467 17.4958 20.7773 17.4237V17.294C20.5179 17.0344 20.3305 16.6884 20.0565 16.4433C19.3211 15.8087 18.5136 15.1888 17.6774 14.6697C17.2304 14.3813 16.6535 14.1939 16.1777 13.9488C16.0049 13.8622 15.7164 13.819 15.6155 13.6748C15.3559 13.3577 15.2117 12.9395 15.0243 12.5646C14.6063 11.7715 14.2024 10.892 13.8419 10.0558C13.5825 9.49342 13.4239 8.93102 13.1066 8.41206C11.6215 5.96085 10.0066 4.47572 7.52663 3.01935C6.99307 2.71661 6.35866 2.58682 5.68099 2.42828C5.32065 2.41378 4.96006 2.38502 4.59963 2.37052C4.3689 2.26957 4.13818 1.99567 3.93629 1.86589C3.11458 1.34676 0.994878 0.222219 0.389307 1.70735C-4.22361e-05 2.6445 0.96612 3.56724 1.29762 4.04319C1.54293 4.37478 1.86002 4.74962 2.03306 5.12455C2.134 5.36953 2.16276 5.62926 2.2637 5.88875C2.49451 6.52299 2.71065 7.22967 3.01356 7.82091C3.17218 8.12365 3.34514 8.44081 3.54703 8.7148C3.66239 8.87334 3.86419 8.94553 3.90754 9.20501C3.70574 9.49342 3.69123 9.92603 3.57579 10.2865C3.05674 11.9158 3.2587 13.9344 3.99398 15.1311C4.22462 15.4914 4.77259 16.2847 5.50795 15.9818C6.15686 15.7223 6.01266 14.9005 6.19996 14.1795C6.24338 14.0063 6.21454 13.8911 6.30098 13.7758V13.8047C6.50287 14.2083 6.70467 14.5977 6.89213 15.0014C7.33916 15.7078 8.11769 16.4433 8.76653 16.9336C9.1127 17.193 9.3866 17.64 9.81921 17.7986V17.7553H9.79029C9.70376 17.6255 9.57398 17.5679 9.4587 17.4669C9.19922 17.2075 8.91073 16.8902 8.70893 16.6018C8.10344 15.7943 7.5698 14.9004 7.09402 13.9776C6.86337 13.5307 6.66141 13.0404 6.47402 12.5935C6.38742 12.4202 6.38742 12.1608 6.2433 12.0744C6.02699 12.3916 5.70983 12.6656 5.55121 13.0548C5.27739 13.6748 5.24846 14.439 5.14752 15.232C5.08984 15.2465 5.1186 15.232 5.08976 15.261C4.62847 15.1454 4.46985 14.6697 4.29672 14.266C3.86411 13.2423 3.79201 11.5985 4.16702 10.4162C4.26796 10.1134 4.70057 9.16183 4.52753 8.87343C4.44101 8.59944 4.15252 8.44082 3.99398 8.22459C3.80659 7.95061 3.60463 7.60468 3.47493 7.30177C3.12884 6.49432 2.95579 5.60034 2.58095 4.79288C2.4079 4.41796 2.10524 4.02877 1.86002 3.68268C1.58611 3.29342 1.28328 3.01935 1.06698 2.55798C0.994961 2.39944 0.893936 2.13987 1.0093 1.96683C1.03814 1.85147 1.09574 1.80829 1.21118 1.77945C1.39865 1.62074 1.9322 1.82263 2.1195 1.90915C2.65305 2.12529 3.1 2.32734 3.54703 2.63008C3.74883 2.77429 3.96514 3.04827 4.22462 3.12037H4.52745C4.9889 3.22123 5.50786 3.14922 5.94047 3.27892C6.70475 3.52398 7.39676 3.88449 8.01683 4.27384C9.90573 5.47056 11.4628 7.17199 12.5155 9.20501C12.6885 9.53651 12.7605 9.8395 12.9192 10.1854C13.2221 10.892 13.5969 11.613 13.8996 12.305C14.2024 12.9826 14.4907 13.6748 14.9233 14.2372C15.1397 14.5399 16.0047 14.6986 16.3941 14.8572C16.6825 14.9869 17.1295 15.1023 17.389 15.2609C17.8792 15.5635 18.3694 15.9098 18.8308 16.2413C19.0616 16.4143 19.7824 16.7749 19.8258 17.0632Z" fill="#BBBBBB"/>
<path d="M5.11841 4.5332C4.87335 4.5332 4.70039 4.56221 4.52734 4.60539V4.63423H4.55618C4.67163 4.86495 4.87335 5.02358 5.01747 5.22538C5.13291 5.45602 5.23377 5.68683 5.34922 5.91756C5.36356 5.90305 5.37798 5.88871 5.37798 5.88871C5.57995 5.74443 5.6808 5.51379 5.6808 5.1677C5.59428 5.06684 5.57986 4.9659 5.50776 4.86495C5.42132 4.72067 5.23377 4.64865 5.11841 4.5332Z" fill="#BBBBBB"/>
</g>
</g>
<defs>
<clipPath id="clip0_1175_4010">
<rect width="21.5" height="22" fill="white"/>
</clipPath>
<clipPath id="clip1_1175_4010">
<rect width="21.4984" height="22" fill="white"/>
</clipPath>
</defs>
</svg>
