<svg width="22" height="22" viewBox="0 0 22 22" fill="none" xmlns="http://www.w3.org/2000/svg">
<g clip-path="url(#clip0_1175_4006)">
<g clip-path="url(#clip1_1175_4006)">
<path d="M10.2802 0.0171453C10.233 0.0214417 10.0826 0.0364793 9.94727 0.0472204C6.8259 0.328638 3.90216 2.01285 2.05039 4.60146C1.01924 6.04078 0.359732 7.67343 0.110537 9.40275C0.0224599 10.0064 0.0117188 10.1847 0.0117188 11.0032C0.0117188 11.8217 0.0224599 12 0.110537 12.6036C0.707744 16.7304 3.64437 20.1976 7.62719 21.4822C8.3404 21.7121 9.09228 21.8689 9.94727 21.9634C10.2802 22 11.7196 22 12.0525 21.9634C13.5284 21.8002 14.7786 21.435 16.0117 20.8055C16.2008 20.7089 16.2373 20.6831 16.2115 20.6616C16.1943 20.6487 15.3887 19.5682 14.422 18.262L12.6648 15.8883L10.4628 12.6294C9.25125 10.8378 8.25447 9.37268 8.24587 9.37268C8.23728 9.37053 8.22869 10.8184 8.22439 12.5864C8.21795 15.682 8.2158 15.8066 8.17713 15.8797C8.12128 15.9849 8.07831 16.0279 7.98809 16.0751C7.91934 16.1095 7.85919 16.116 7.53481 16.116H7.16317L7.06435 16.0537C6.9999 16.0128 6.95264 15.9591 6.92042 15.8968L6.87531 15.8002L6.8796 11.493L6.88605 7.18363L6.95264 7.09985C6.98701 7.05474 7.06005 6.99674 7.11161 6.96881C7.19969 6.92585 7.23406 6.92155 7.6057 6.92155C8.04394 6.92155 8.11698 6.93873 8.23084 7.06333C8.26306 7.0977 9.45533 8.89362 10.8818 11.0569C12.3082 13.2202 14.2588 16.174 15.2169 17.624L16.9569 20.2599L17.045 20.2019C17.8248 19.6949 18.6497 18.9731 19.3028 18.2212C20.6927 16.6251 21.5885 14.6788 21.8893 12.6036C21.9773 12 21.9881 11.8217 21.9881 11.0032C21.9881 10.1847 21.9773 10.0064 21.8893 9.40275C21.2921 5.27601 18.3554 1.80877 14.3726 0.524127C13.6701 0.296415 12.9226 0.139594 12.0848 0.0450722C11.8785 0.0235899 10.4585 -4.05634e-05 10.2802 0.0171453ZM14.7786 6.66376C14.8818 6.71532 14.9655 6.81414 14.9956 6.91725C15.0128 6.97311 15.0171 8.16752 15.0128 10.8592L15.0063 14.7218L14.3254 13.6777L13.6422 12.6337V9.82595C13.6422 8.0107 13.6508 6.99029 13.6637 6.94088C13.6981 6.82058 13.7733 6.72606 13.8764 6.67021C13.9645 6.62509 13.9967 6.6208 14.334 6.6208C14.6519 6.6208 14.7077 6.62509 14.7786 6.66376Z" fill="#BBBBBB"/>
<path d="M16.8496 20.3073C16.7744 20.3546 16.7508 20.3868 16.8174 20.3503C16.8646 20.3224 16.942 20.2644 16.9291 20.2622C16.9226 20.2622 16.8861 20.2837 16.8496 20.3073ZM16.7014 20.404C16.6627 20.4341 16.6627 20.4362 16.71 20.4126C16.7357 20.3997 16.7572 20.3847 16.7572 20.3804C16.7572 20.3632 16.7465 20.3675 16.7014 20.404ZM16.594 20.4684C16.5553 20.4985 16.5553 20.5007 16.6025 20.477C16.6283 20.4641 16.6498 20.4491 16.6498 20.4448C16.6498 20.4276 16.6391 20.4319 16.594 20.4684ZM16.4865 20.5329C16.4479 20.563 16.4479 20.5651 16.4951 20.5415C16.5209 20.5286 16.5424 20.5135 16.5424 20.5093C16.5424 20.4921 16.5317 20.4964 16.4865 20.5329ZM16.3233 20.6188C16.2416 20.6618 16.2459 20.679 16.3276 20.6381C16.3641 20.6188 16.392 20.5995 16.392 20.5952C16.392 20.5801 16.3899 20.5823 16.3233 20.6188Z" fill="#BBBBBB"/>
</g>
</g>
<defs>
<clipPath id="clip0_1175_4006">
<rect width="22" height="22" fill="white"/>
</clipPath>
<clipPath id="clip1_1175_4006">
<rect width="22" height="22" fill="white"/>
</clipPath>
</defs>
</svg>
