<svg width="22" height="22" viewBox="0 0 22 22" fill="none" xmlns="http://www.w3.org/2000/svg">
<g clip-path="url(#clip0_1175_4011)">
<g clip-path="url(#clip1_1175_4011)">
<path d="M21.2484 13.1724C21.1205 12.785 20.7855 12.5152 20.3522 12.4505C20.1479 12.42 19.9139 12.433 19.637 12.4901C19.1544 12.5896 18.7963 12.6276 18.535 12.6349C19.5214 10.9696 20.3234 9.07066 20.7851 7.28309C21.5317 4.39263 21.1327 3.07585 20.6665 2.48024C19.4327 0.90373 17.6326 0.0568149 15.461 0.0309008C14.3025 0.0167356 13.2856 0.245463 12.755 0.409946C12.2611 0.322788 11.73 0.274127 11.1727 0.265127C10.128 0.248462 9.20505 0.47619 8.41638 0.944226C7.97976 0.796574 7.279 0.588428 6.46974 0.455608C4.56643 0.14314 3.03242 0.386615 1.91037 1.17929C0.551668 2.13902 -0.0781858 3.80652 0.0383026 6.13546C0.0752989 6.87488 0.488924 9.12466 1.14019 11.2583C1.51449 12.4847 1.91362 13.5031 2.32649 14.2855C2.91202 15.3949 3.53854 16.0483 4.24188 16.2829C4.63609 16.4143 5.35235 16.5063 6.1057 15.8788C6.20119 15.9945 6.32859 16.1094 6.49766 16.2161C6.71239 16.3515 6.97494 16.4622 7.23717 16.5278C8.18216 16.764 9.06732 16.7049 9.82249 16.3738C9.82716 16.5081 9.83074 16.6364 9.83374 16.7472C9.83874 16.927 9.84374 17.1032 9.85032 17.268C9.89507 18.3824 9.97089 19.2489 10.1955 19.8552C10.2079 19.8885 10.2245 19.9393 10.2419 19.9932C10.354 20.3364 10.5414 20.9108 11.0182 21.3607C11.5119 21.8267 12.1091 21.9696 12.656 21.9696C12.9303 21.9696 13.1921 21.9336 13.4216 21.8845C14.2399 21.7091 15.1692 21.4419 15.8415 20.4847C16.4771 19.5798 16.786 18.2168 16.842 16.0693C16.8492 16.0086 16.8559 15.9506 16.8623 15.8953L16.8756 15.7818L17.0254 15.795L17.0639 15.7976C17.8973 15.8356 18.9164 15.6588 19.5423 15.3681C20.0368 15.1386 21.6216 14.302 21.2484 13.1724Z" fill="black"/>
<path d="M19.8234 13.3924C17.3454 13.9036 17.175 13.0646 17.175 13.0646C19.7914 9.1822 20.8852 4.25411 19.9413 3.04798C17.3663 -0.242106 12.9088 1.3139 12.8344 1.35423L12.8105 1.35857C12.3209 1.25691 11.773 1.19642 11.1571 1.18633C10.0359 1.168 9.18533 1.4803 8.5399 1.96976C8.5399 1.96976 0.588192 -1.30608 0.958072 6.08968C1.03673 7.66302 3.21318 17.9946 5.80909 14.874C6.75791 13.7328 7.67473 12.768 7.67473 12.768C8.13002 13.0705 8.67513 13.2248 9.24658 13.1694L9.29099 13.1317C9.27716 13.2734 9.28349 13.4119 9.30874 13.576C8.63997 14.3232 8.83653 14.4543 7.49967 14.7296C6.14689 15.0084 6.94156 15.5047 7.46042 15.6345C8.08944 15.7917 9.54463 16.0145 10.5279 14.6381L10.4887 14.7951C10.7507 15.005 10.9347 16.1603 10.9038 17.2076C10.873 18.2548 10.8524 18.9738 11.0588 19.5354C11.2654 20.097 11.4711 21.3607 13.2286 20.9841C14.697 20.6694 15.458 19.8539 15.5639 18.4935C15.639 17.5265 15.8091 17.6694 15.8198 16.8048L15.9562 16.3955C16.1134 15.0845 15.9812 14.6616 16.8858 14.8583L17.1058 14.8776C17.7716 14.9079 18.6431 14.7705 19.1547 14.5328C20.2561 14.0216 20.9093 13.1681 19.8233 13.3924H19.8234Z" fill="#BBBBBB"/>
<path d="M9.00544 6.79284C8.78212 6.76176 8.57989 6.7905 8.47757 6.868C8.42008 6.91157 8.40225 6.96207 8.39741 6.99682C8.38458 7.08889 8.44907 7.19071 8.48874 7.24321C8.60089 7.39186 8.76471 7.49402 8.92686 7.51651C8.95036 7.51985 8.97377 7.52135 8.99702 7.52135C9.26741 7.52135 9.5133 7.31078 9.53497 7.15538C9.56205 6.96074 9.27949 6.83092 9.00544 6.79284ZM16.4034 6.799C16.382 6.64643 16.1106 6.60294 15.8529 6.63877C15.5956 6.6746 15.3461 6.79075 15.367 6.94365C15.3836 7.06256 15.5984 7.26554 15.8525 7.26554C15.874 7.26554 15.8957 7.26412 15.9175 7.26104C16.0871 7.23754 16.2116 7.1298 16.2708 7.06772C16.3608 6.97307 16.4129 6.86758 16.4034 6.799Z" fill="black"/>
<path d="M20.6482 13.334C20.5537 13.0483 20.2495 12.9564 19.7443 13.0607C18.244 13.3703 17.7067 13.1558 17.5303 13.0259C18.6964 11.2494 19.6558 9.10199 20.1733 7.09844C20.4184 6.14937 20.5538 5.26796 20.5649 4.54953C20.5772 3.76103 20.4428 3.18159 20.1659 2.82762C19.0492 1.40068 17.4102 0.635257 15.4262 0.614259C14.0622 0.598927 12.9099 0.947976 12.6865 1.04613C12.216 0.929144 11.7031 0.857318 11.1448 0.848153C10.1209 0.831571 9.2358 1.07671 8.50304 1.57641C8.18474 1.45792 7.36215 1.17554 6.35617 1.01347C4.61701 0.733497 3.23498 0.945643 2.24875 1.64432C1.07195 2.47807 0.528671 3.96842 0.63391 6.07388C0.669323 6.78223 1.07295 8.96134 1.70989 11.0482C2.5483 13.7949 3.45971 15.3499 4.41862 15.6698C4.53085 15.7072 4.66026 15.7333 4.80299 15.7333C5.15279 15.7333 5.58167 15.5757 6.02787 15.0392C6.57211 14.3863 7.1351 13.7493 7.71612 13.1289C8.09308 13.3312 8.50721 13.4442 8.93075 13.4556C8.93158 13.4666 8.93266 13.4777 8.93366 13.4887C8.86076 13.5757 8.78936 13.6639 8.71952 13.7533C8.42605 14.1258 8.36497 14.2034 7.42032 14.3979C7.15159 14.4534 6.43791 14.6004 6.42741 15.1007C6.41608 15.6473 7.27108 15.8769 7.36849 15.9012C7.70795 15.9862 8.035 16.0281 8.34689 16.0281C9.1054 16.0281 9.77291 15.7788 10.3064 15.2965C10.2899 17.2451 10.3712 19.1652 10.6052 19.7503C10.7968 20.2292 11.2649 21.3997 12.7436 21.3996C12.9606 21.3996 13.1994 21.3744 13.4621 21.318C15.0054 20.9872 15.6756 20.3051 15.9348 18.8014C16.0735 17.9977 16.3116 16.0786 16.4236 15.0492C16.6599 15.123 16.9641 15.1567 17.293 15.1566C17.9789 15.1566 18.7704 15.0109 19.2668 14.7805C19.8244 14.5215 20.8306 13.8861 20.6482 13.334ZM16.973 6.37802C16.9679 6.6819 16.9261 6.95779 16.8818 7.24576C16.834 7.55548 16.7847 7.8757 16.7723 8.26441C16.76 8.64271 16.8073 9.036 16.853 9.41638C16.9453 10.1846 17.04 10.9756 16.6733 11.756C16.6124 11.648 16.5581 11.5365 16.5108 11.4219C16.4652 11.3114 16.3663 11.134 16.2292 10.8883C15.696 9.93208 14.4474 7.6928 15.0865 6.77906C15.2769 6.50709 15.7601 6.22745 16.973 6.37802ZM15.5028 1.22961C17.2805 1.26886 18.6867 1.93388 19.6823 3.20608C20.4458 4.1819 19.605 8.62204 17.1708 12.4526C17.1464 12.4214 17.1218 12.3904 17.097 12.3595L17.0662 12.321C17.6952 11.2822 17.5722 10.2544 17.4627 9.34314C17.4177 8.96917 17.3752 8.61596 17.3861 8.28416C17.3972 7.93253 17.4437 7.63089 17.4887 7.33925C17.544 6.97987 17.6002 6.60799 17.5847 6.16962C17.5963 6.12362 17.601 6.0693 17.5949 6.0048C17.5553 5.58443 17.0754 4.32631 16.0971 3.18759C15.562 2.56473 14.7817 1.86772 13.7162 1.3976C14.1745 1.30261 14.8012 1.21403 15.5028 1.22961ZM5.55567 14.6466C5.06405 15.2377 4.72458 15.1244 4.61293 15.0872C3.8855 14.8446 3.04142 13.3071 2.29724 10.869C1.65331 8.75936 1.27701 6.63799 1.24718 6.04313C1.15319 4.16182 1.60923 2.8507 2.60271 2.14611C4.21955 0.999554 6.87779 1.68582 7.94593 2.03387C7.9306 2.04903 7.9146 2.0632 7.89943 2.07861C6.14661 3.84877 6.18819 6.87313 6.19252 7.05803C6.19235 7.12936 6.19835 7.23035 6.20652 7.36925C6.23668 7.87795 6.29284 8.82469 6.14286 9.89683C6.00354 10.8931 6.31068 11.8683 6.98536 12.5723C7.0546 12.6444 7.12738 12.7131 7.20342 12.778C6.90312 13.0996 6.25043 13.8109 5.55567 14.6466ZM7.42873 12.1474C6.88495 11.58 6.63798 10.7907 6.75105 9.98182C6.90937 8.84927 6.85096 7.86287 6.81954 7.33292C6.81513 7.25876 6.81121 7.19377 6.80896 7.14252C7.06502 6.91546 8.25165 6.27969 9.0979 6.47359C9.48403 6.562 9.71934 6.82497 9.81716 7.27726C10.3234 9.61894 9.88415 10.5949 9.53119 11.3793C9.45845 11.5408 9.3897 11.6936 9.33104 11.8516L9.28555 11.9737C9.17039 12.2825 9.06323 12.5696 8.99682 12.8423C8.41872 12.8406 7.85636 12.5936 7.42873 12.1474V12.1474ZM7.51747 15.3055C7.34866 15.2633 7.19684 15.1901 7.10776 15.1293C7.18217 15.0943 7.31458 15.0467 7.54422 14.9993C8.65553 14.7706 8.82717 14.6091 9.20197 14.1332C9.28788 14.0241 9.38529 13.9004 9.52019 13.7498L9.52036 13.7496C9.72125 13.5246 9.81316 13.5628 9.97981 13.632C10.1149 13.6878 10.2464 13.8571 10.2998 14.0434C10.325 14.1314 10.3534 14.2984 10.2606 14.4284C9.47769 15.5246 8.33681 15.5105 7.51747 15.3055ZM13.3335 20.7176C11.9739 21.0089 11.4926 20.3152 11.1754 19.5222C10.9706 19.0103 10.87 16.7017 10.9414 14.1522C10.9423 14.1182 10.9375 14.0855 10.9281 14.0547C10.9198 13.9938 10.9071 13.9336 10.8901 13.8745C10.784 13.5036 10.5253 13.1933 10.2149 13.0646C10.0915 13.0135 9.86524 12.9198 9.59326 12.9894C9.65126 12.7504 9.75183 12.4805 9.86091 12.1883L9.90665 12.0654C9.95815 11.9268 10.0228 11.7832 10.0911 11.6312C10.4605 10.8107 10.9664 9.68669 10.4173 7.14752C10.2117 6.19645 9.52494 5.732 8.48388 5.8399C7.85977 5.90448 7.28875 6.15629 7.00394 6.30069C6.9427 6.33169 6.8867 6.36168 6.83437 6.39085C6.91387 5.43261 7.21417 3.64179 8.33756 2.50874C9.0449 1.79547 9.98689 1.44318 11.1346 1.46217C13.3961 1.49917 14.8462 2.65972 15.6647 3.62687C16.3699 4.46021 16.7518 5.29971 16.9042 5.7525C15.7581 5.63592 14.9786 5.86215 14.5834 6.42709C13.7238 7.65597 15.0537 10.0411 15.6929 11.1874C15.8101 11.3974 15.9113 11.579 15.9431 11.6562C16.1513 12.1606 16.4207 12.4974 16.6175 12.7432C16.6778 12.8185 16.7363 12.8916 16.7808 12.9554C16.4337 13.0555 15.8101 13.2867 15.867 14.4425C15.8211 15.0225 15.4953 17.7377 15.3297 18.697C15.1111 19.9644 14.6448 20.4364 13.3335 20.7177V20.7176ZM19.0082 14.2236C18.6533 14.3883 18.0593 14.5119 17.495 14.5385C16.8717 14.5676 16.5544 14.4686 16.4797 14.4077C16.4447 13.6875 16.7128 13.6122 16.9965 13.5326C17.0411 13.5201 17.0846 13.5078 17.1266 13.4931C17.1527 13.5144 17.1813 13.5355 17.2126 13.5561C17.7135 13.8868 18.607 13.9224 19.8685 13.662L19.8823 13.6593C19.7122 13.8184 19.421 14.0318 19.0082 14.2236Z" fill="black"/>
</g>
</g>
<defs>
<clipPath id="clip0_1175_4011">
<rect width="21.33" height="22" fill="white"/>
</clipPath>
<clipPath id="clip1_1175_4011">
<rect width="21.3312" height="22" fill="white"/>
</clipPath>
</defs>
</svg>
