<svg width="22" height="22" viewBox="0 0 22 22" fill="none" xmlns="http://www.w3.org/2000/svg">
<g clip-path="url(#clip0_1175_4016)">
<g clip-path="url(#clip1_1175_4016)">
<path d="M19.6822 4.28513C18.3588 2.56522 16.5569 1.27782 14.5044 0.585742C12.4518 -0.106333 10.2409 -0.171992 8.1512 0.397068C6.06149 0.966128 4.18686 2.14435 2.76441 3.78271C1.34196 5.42108 0.435582 7.44599 0.1599 9.60137C-0.115782 11.7567 0.25162 13.9458 1.21564 15.8916C2.17966 17.8374 3.69699 19.4526 5.57574 20.5329C7.45449 21.6132 9.61026 22.11 11.7704 21.9607C13.9306 21.8113 15.9981 21.0224 17.7114 19.6937C22.4939 15.9844 23.3769 9.08657 19.6822 4.28513Z" fill="#BBBBBB"/>
<path d="M14.7101 7.0141L10.0942 11.6834L8.78979 10.3375C13.3328 5.77812 13.7885 6.19011 14.7101 7.0141Z" fill="black"/>
<path d="M10.0942 11.8108C10.0533 11.8098 10.0143 11.7935 9.98476 11.7651L8.67111 10.4467C8.64153 10.416 8.625 10.3749 8.625 10.3322C8.625 10.2895 8.64153 10.2485 8.67111 10.2177C13.1502 5.72253 13.7615 5.93299 14.8196 6.89431C14.8373 6.90854 14.8515 6.92671 14.861 6.94739C14.8705 6.96807 14.8751 6.99069 14.8744 7.01345C14.8812 7.05808 14.8641 7.10374 14.8289 7.13258L10.2129 11.7654C10.1806 11.7952 10.1381 11.8112 10.0942 11.8108ZM9.01765 10.3369L10.0942 11.4173L14.4731 7.02272C14.3219 6.83256 14.1062 6.70502 13.8671 6.66448C13.6281 6.62394 13.3826 6.67325 13.1776 6.80299C12.3839 7.16005 11.1068 8.24943 9.01765 10.3369Z" fill="#BBBBBB"/>
<path d="M11.4171 12.9743L10.1582 11.6834L14.7741 7.10547C16.0149 8.32325 14.172 10.3561 11.4171 12.9743Z" fill="black"/>
<path d="M11.4171 13.1388C11.3767 13.1355 11.3384 13.1196 11.3076 13.0931L10.0213 11.8297C10.002 11.7827 10.002 11.73 10.0213 11.6831C10.0076 11.6445 10.0076 11.6024 10.0213 11.5639L14.6372 6.9314C14.6693 6.90113 14.7117 6.88428 14.7558 6.88428C14.7998 6.88428 14.8422 6.90113 14.8743 6.9314C15.0238 7.06948 15.1419 7.23825 15.2206 7.42623C15.2993 7.61421 15.3367 7.81699 15.3303 8.02078C15.3303 9.25676 13.9253 10.8131 11.5354 13.0838C11.5035 13.1155 11.4618 13.135 11.4171 13.1388ZM10.3952 11.6831L11.426 12.7172C13.2504 10.9868 14.993 9.20148 15.0019 7.99297C15.0118 7.73677 14.9274 7.48587 14.7648 7.28812L10.3952 11.6831Z" fill="#BBBBBB"/>
<path d="M8.82619 10.3649L9.73856 11.2805C9.74439 11.2857 9.74905 11.292 9.75224 11.2991C9.75544 11.3062 9.75709 11.3139 9.75709 11.3217C9.75709 11.3295 9.75544 11.3372 9.75224 11.3443C9.74905 11.3514 9.74439 11.3578 9.73856 11.3629L7.81358 11.7749C7.77472 11.7833 7.73419 11.7788 7.69815 11.7619C7.66211 11.7451 7.63254 11.7169 7.61395 11.6816C7.59536 11.6464 7.58875 11.606 7.59515 11.5666C7.60154 11.5272 7.62058 11.491 7.64937 11.4635L8.77145 10.3467C8.77145 10.3467 8.80806 10.3467 8.82619 10.3649Z" fill="black"/>
<path d="M7.76797 11.958C7.70715 11.9573 7.64754 11.9408 7.59483 11.9104C7.54213 11.8799 7.49809 11.8364 7.46692 11.784C7.43184 11.7176 7.41912 11.6415 7.43065 11.5673C7.44218 11.493 7.47735 11.4245 7.53089 11.372L8.64374 10.2458C8.68387 10.2098 8.73581 10.1899 8.78964 10.1899C8.84347 10.1899 8.89541 10.2098 8.93555 10.2458L9.84792 11.1615C9.90197 11.213 9.92318 11.2909 9.90265 11.363C9.88213 11.4351 9.82192 11.4925 9.74768 11.5096L7.8227 11.9216L7.76797 11.958ZM8.78981 10.5665L7.75907 11.601L9.46511 11.2346L8.78981 10.5665Z" fill="#BBBBBB"/>
<path d="M17.1644 4.44083C16.5041 3.80155 15.4669 3.77477 14.7745 4.378C14.0821 4.98123 13.9637 6.0167 14.5028 6.76173C15.042 7.50675 16.0584 7.71549 16.8452 7.24239L15.6044 5.99714L17.1644 4.44083Z" fill="black"/>
<path d="M15.9329 7.66364C15.5536 7.65876 15.1841 7.54196 14.8704 7.3278C14.5568 7.11363 14.3129 6.81157 14.1691 6.45925C14.0254 6.1072 13.9877 5.72059 14.0607 5.34726C14.1336 4.97393 14.314 4.63026 14.5796 4.35877C14.9448 3.99895 15.4362 3.79736 15.948 3.79736C16.4598 3.79736 16.9511 3.99895 17.3164 4.35877C17.3513 4.38829 17.3711 4.4319 17.3711 4.4779C17.371 4.50054 17.3661 4.52289 17.3567 4.54344C17.3472 4.564 17.3335 4.58228 17.3164 4.59704L15.8385 5.99782L16.9606 7.10574C16.9788 7.12316 16.9924 7.14478 17.0004 7.16872C17.0083 7.19266 17.0103 7.21819 17.0061 7.24307C17.0034 7.26707 16.9955 7.29018 16.9829 7.31077C16.9703 7.33136 16.9533 7.34892 16.9332 7.3622C16.6318 7.5513 16.2852 7.65565 15.9299 7.66433L15.9329 7.66364ZM15.9329 4.11123C15.283 4.11466 14.7014 4.50709 14.4575 5.10688C14.2136 5.70667 14.3463 6.39711 14.802 6.85785C15.0286 7.08664 15.3188 7.2414 15.6346 7.30187C15.9504 7.36233 16.277 7.32568 16.5716 7.19672L15.4951 6.11626C15.4779 6.10253 15.4641 6.08511 15.4546 6.06529C15.4451 6.04547 15.4402 6.02376 15.4402 6.00176C15.4402 5.97977 15.4451 5.95806 15.4546 5.93824C15.4641 5.91842 15.4779 5.901 15.4951 5.88726L16.9182 4.44975C16.6353 4.23216 16.2894 4.11352 15.9329 4.11123Z" fill="#BBBBBB"/>
<path d="M17.1918 4.46826L15.6318 6.02457L16.8726 7.26982C16.9975 7.19787 17.1138 7.11182 17.2192 7.01335C17.5444 6.66839 17.7233 6.21011 17.7182 5.73525C17.7131 5.2604 17.5243 4.8061 17.1918 4.46826Z" fill="black"/>
<path d="M16.8448 7.40761C16.8243 7.40872 16.8038 7.4052 16.7849 7.39729C16.7659 7.38939 16.749 7.37731 16.7353 7.36195L15.4945 6.1167C15.4774 6.10296 15.4636 6.08554 15.4541 6.06572C15.4446 6.0459 15.4397 6.02419 15.4397 6.0022C15.4397 5.98021 15.4446 5.95849 15.4541 5.93867C15.4636 5.91885 15.4774 5.90143 15.4945 5.8877L17.0453 4.35886C17.0603 4.3362 17.0806 4.31761 17.1045 4.30475C17.1283 4.29189 17.155 4.28516 17.1821 4.28516C17.2092 4.28516 17.2359 4.29189 17.2598 4.30475C17.2836 4.31761 17.304 4.3362 17.319 4.35886C17.501 4.53787 17.6456 4.75154 17.7444 4.98736C17.8431 5.22317 17.894 5.47638 17.894 5.73217C17.894 5.98796 17.8431 6.24117 17.7444 6.47698C17.6456 6.7128 17.501 6.92647 17.319 7.10548C17.2116 7.21979 17.0887 7.31838 16.9539 7.39834C16.92 7.4155 16.8811 7.41882 16.8448 7.40761ZM15.8414 5.99791L16.8722 7.03235C16.9431 6.98248 17.0102 6.92739 17.073 6.86756C17.376 6.56429 17.5467 6.15271 17.5475 5.72324C17.5482 5.3389 17.4086 4.96761 17.1551 4.67953L15.8414 5.99791Z" fill="#BBBBBB"/>
<path d="M14.9017 7.20617C14.7782 7.08972 14.6151 7.0249 14.4456 7.0249C14.2761 7.0249 14.1129 7.08972 13.9894 7.20617L9.85718 11.344L10.5414 12.0399L14.911 8.19461C14.9776 8.13051 15.0305 8.05341 15.0663 7.96804C15.1021 7.88267 15.1202 7.79084 15.1193 7.69821C15.1184 7.60559 15.0987 7.51412 15.0613 7.42944C15.0239 7.34476 14.9696 7.269 14.9017 7.20617Z" fill="black"/>
<path d="M10.5048 12.2051C10.4639 12.2041 10.4249 12.1878 10.3953 12.1594L9.70187 11.4635C9.67229 11.4328 9.65576 11.3917 9.65576 11.349C9.65576 11.3063 9.67229 11.2652 9.70187 11.2345L13.8344 7.1053C13.9534 6.98599 14.1054 6.90531 14.2707 6.87375C14.436 6.84218 14.6069 6.86117 14.7613 6.92826C14.9156 6.99535 15.0464 7.10744 15.1365 7.24999C15.2266 7.39255 15.272 7.559 15.2668 7.72775C15.262 7.8423 15.2346 7.95474 15.186 8.0585C15.1374 8.16225 15.0687 8.25524 14.9839 8.33201L10.6142 12.1773C10.5825 12.1999 10.5434 12.21 10.5048 12.2051ZM10.0214 11.344L10.4774 11.811L14.7649 8.06628C14.871 7.97358 14.9342 7.84105 14.9384 7.69994C14.9425 7.55884 14.887 7.42082 14.7834 7.32469C14.6877 7.22902 14.5581 7.17531 14.423 7.17531C14.2879 7.17531 14.1583 7.22902 14.0626 7.32469L10.0214 11.344Z" fill="#BBBBBB"/>
<path d="M6.65522 16.0594C6.64355 16.0753 6.63726 16.0945 6.63726 16.1143C6.63726 16.1341 6.64355 16.1533 6.65522 16.1692L6.83756 16.9658C6.84487 17.0126 6.83794 17.0606 6.81768 17.1035C6.79742 17.1464 6.76477 17.1821 6.72398 17.2061C6.68334 17.2299 6.6362 17.2402 6.58935 17.2355C6.5425 17.2307 6.49837 17.2112 6.4633 17.1797L5.21362 15.9711L9.10909 12.0308H10.4593L11.3717 12.9464C9.94849 14.1952 8.36159 15.2426 6.65522 16.0594Z" fill="black"/>
<path d="M6.57304 17.4053C6.46972 17.4032 6.36778 17.3606 6.29936 17.2861L5.10441 16.0869C5.0873 16.0732 5.07348 16.0557 5.06399 16.0359C5.05449 16.0161 5.04956 15.9944 5.04956 15.9724C5.04956 15.9504 5.05449 15.9287 5.06399 15.9089C5.07348 15.889 5.0873 15.8716 5.10441 15.8579L9.0269 11.912C9.04887 11.8886 9.07757 11.8726 9.109 11.8664H10.4682C10.5036 11.8538 10.5422 11.8538 10.5776 11.8664L11.49 12.782C11.5074 12.7981 11.5206 12.8181 11.5285 12.8404C11.5364 12.8627 11.5388 12.8866 11.5355 12.9101C11.5361 12.9328 11.5315 12.9554 11.522 12.9761C11.5125 12.9967 11.4984 13.0149 11.4808 13.0292L11.4079 13.0934C9.97893 14.289 8.40681 15.3008 6.72801 16.1054L6.90145 16.847C6.91486 16.9042 6.91537 16.9637 6.90295 17.0211C6.89053 17.0786 6.8655 17.1325 6.82967 17.179C6.79384 17.2255 6.74812 17.2633 6.69585 17.2898C6.64358 17.3163 6.58608 17.3308 6.52754 17.3321L6.57304 17.4053ZM5.46019 15.9678L6.53643 17.0571C6.54646 17.0661 6.55943 17.0711 6.57287 17.0711C6.5863 17.0711 6.59927 17.0661 6.6093 17.0571C6.61601 17.0478 6.61962 17.0366 6.61962 17.025C6.61962 17.0135 6.61601 17.0023 6.6093 16.9929L6.42696 16.1964C6.41259 16.1392 6.41837 16.0789 6.44331 16.0255C6.46825 15.9721 6.51082 15.929 6.5638 15.9036C8.19746 15.1097 9.72906 14.1197 11.125 12.9554L10.3768 12.2045H9.1545L5.46019 15.9678Z" fill="#BBBBBB"/>
<path d="M4.27419 16.9108L5.18656 15.9951L6.59156 17.4052L4.35664 17.2496C4.31826 17.2466 4.28182 17.2315 4.25251 17.2065C4.2232 17.1814 4.20252 17.1478 4.19342 17.1102C4.18431 17.0727 4.18725 17.0332 4.20182 16.9975C4.21639 16.9617 4.24184 16.9315 4.27453 16.9111L4.27419 16.9108Z" fill="black"/>
<path d="M6.61859 17.5424L4.39256 17.3869C4.26051 17.3745 4.14694 17.2839 4.10041 17.1627C4.05389 17.0415 4.08228 16.8976 4.17362 16.8008L5.08599 15.8851C5.11661 15.8555 5.15751 15.8389 5.20008 15.8389C5.24265 15.8389 5.28356 15.8555 5.31417 15.8851L6.70993 17.2859C6.72925 17.3125 6.73967 17.3445 6.73967 17.3774C6.73967 17.4103 6.72925 17.4423 6.70993 17.4689C6.68883 17.5032 6.65655 17.5293 6.61859 17.5424ZM4.39256 17.0298L6.21697 17.1489L5.2136 16.2058L4.39256 17.0298Z" fill="#BBBBBB"/>
<path d="M10.5868 12.1413L8.7439 12.4252L9.81124 11.3633L10.5868 12.1413Z" fill="black"/>
<path d="M8.74409 12.5985C8.71346 12.5993 8.68328 12.5911 8.6573 12.5748C8.63132 12.5585 8.6107 12.5349 8.59802 12.5069C8.57859 12.4803 8.56812 12.4483 8.56812 12.4154C8.56812 12.3825 8.57859 12.3504 8.59802 12.3239L9.65612 11.2527C9.68822 11.2224 9.73061 11.2056 9.77466 11.2056C9.81871 11.2056 9.8611 11.2224 9.8932 11.2527L10.6691 12.0307C10.6846 12.0553 10.6928 12.0839 10.6928 12.1131C10.6928 12.1422 10.6846 12.1708 10.6691 12.1955C10.6615 12.2255 10.6454 12.2528 10.6227 12.2739C10.6001 12.295 10.5719 12.3092 10.5415 12.3146L8.71707 12.5985H8.74409ZM9.81143 11.6005L9.21858 12.1955L10.2404 12.0399L9.81143 11.6005Z" fill="#BBBBBB"/>
<path d="M10.5869 12.1406L9.30065 12.3054C9.26623 12.3133 9.23021 12.3098 9.19792 12.2954C9.16564 12.2811 9.13881 12.2567 9.12142 12.2259C9.10402 12.1951 9.09699 12.1595 9.10136 12.1243C9.10573 12.0892 9.12127 12.0564 9.14568 12.0308L9.81174 11.3623L10.5869 12.1406Z" fill="black"/>
<path d="M9.26409 12.4798C9.20446 12.4792 9.14606 12.4628 9.0948 12.4322C9.04355 12.4016 9.00127 12.358 8.97228 12.3057C8.93744 12.243 8.92393 12.1706 8.93381 12.0996C8.94369 12.0285 8.97642 11.9626 9.02701 11.9119L9.69308 11.2434C9.72518 11.2132 9.76757 11.1963 9.81161 11.1963C9.85566 11.1963 9.89805 11.2132 9.93015 11.2434L10.7057 12.0218C10.7287 12.0437 10.745 12.0719 10.7524 12.1029C10.7598 12.1339 10.7581 12.1664 10.7475 12.1964C10.7369 12.2265 10.7178 12.2528 10.6926 12.2722C10.6674 12.2916 10.6371 12.3032 10.6055 12.3057L9.3284 12.4705L9.26409 12.4798ZM9.26409 12.1409L10.2312 12.0218L9.80255 11.5916L9.25519 12.1409H9.26409ZM17.2007 5.52153C17.1836 5.49264 17.1564 5.47108 17.1244 5.46096C17.0925 5.45083 17.0579 5.45284 17.0273 5.46659C17.0122 5.47427 16.9988 5.48492 16.9879 5.49789C16.9769 5.51086 16.9687 5.52591 16.9637 5.54213C16.9535 5.57486 16.9567 5.61029 16.9726 5.64066C17.0365 5.77559 17.0187 5.93524 16.9271 6.05265C16.9157 6.06396 16.9068 6.07753 16.9009 6.09248C16.895 6.10743 16.8923 6.12345 16.8929 6.13952C16.8932 6.17172 16.9054 6.20265 16.9271 6.22638C16.9505 6.23565 16.9765 6.23565 16.9999 6.22638C17.0212 6.23174 17.0435 6.23115 17.0644 6.22467C17.0853 6.21819 17.1041 6.20608 17.1186 6.18964C17.1938 6.09734 17.2413 5.98559 17.2559 5.86731C17.2704 5.74903 17.2513 5.62937 17.2007 5.52153Z" fill="#BBBBBB"/>
</g>
</g>
<defs>
<clipPath id="clip0_1175_4016">
<rect width="22" height="22" fill="white"/>
</clipPath>
<clipPath id="clip1_1175_4016">
<rect width="22" height="22" fill="white"/>
</clipPath>
</defs>
</svg>
