<svg width="22" height="22" viewBox="0 0 22 22" fill="none" xmlns="http://www.w3.org/2000/svg">
<g clip-path="url(#clip0_1175_4002)">
<path d="M10.9058 0.00634766C5.33483 0.00634766 5.68268 2.43196 5.68268 2.43196L5.68886 4.94496H11.0051V5.69943H3.57732C3.57732 5.69943 0.0124512 5.29351 0.0124512 10.9372C0.0124512 16.581 3.12395 16.3808 3.12395 16.3808H4.98089V13.7619C4.98089 13.7619 4.88078 10.6379 8.04273 10.6379H13.3155C13.3155 10.6379 16.2779 10.6859 16.2779 7.76329V2.93088C16.2779 2.93088 16.7279 0.00634766 10.9058 0.00634766ZM7.97441 1.69629C8.10004 1.69618 8.22446 1.72094 8.34054 1.76916C8.45663 1.81737 8.56211 1.8881 8.65094 1.97729C8.73977 2.06647 8.81021 2.17238 8.85824 2.28893C8.90626 2.40548 8.93092 2.5304 8.93081 2.65653C8.93092 2.78266 8.90626 2.90758 8.85824 3.02413C8.81021 3.14068 8.73977 3.24658 8.65094 3.33577C8.56211 3.42496 8.45663 3.49569 8.34054 3.5439C8.22446 3.59212 8.10004 3.61688 7.97441 3.61676C7.84878 3.61688 7.72437 3.59212 7.60828 3.5439C7.4922 3.49569 7.38672 3.42496 7.29789 3.33577C7.20906 3.24658 7.13861 3.14068 7.09059 3.02413C7.04257 2.90758 7.0179 2.78266 7.01802 2.65653C7.0179 2.5304 7.04257 2.40548 7.09059 2.28893C7.13861 2.17238 7.20906 2.06647 7.29789 1.97729C7.38672 1.8881 7.4922 1.81737 7.60828 1.76916C7.72437 1.72094 7.84878 1.69618 7.97441 1.69629Z" fill="#BBBBBB"/>
<path d="M11.0641 21.9247C16.6351 21.9247 16.2873 19.4991 16.2873 19.4991L16.2811 16.9861H10.9647V16.2317H18.3925C18.3925 16.2317 21.9574 16.6376 21.9574 10.9938C21.9574 5.35004 18.8459 5.55019 18.8459 5.55019H16.989V8.16906C16.989 8.16906 17.0891 11.2931 13.9271 11.2931H8.65431C8.65431 11.2931 5.6919 11.245 5.6919 14.1677V19.0002C5.6919 19.0002 5.24206 21.9247 11.064 21.9247H11.0641ZM13.9955 20.2349C13.8699 20.235 13.7455 20.2102 13.6294 20.162C13.5133 20.1138 13.4078 20.0431 13.319 19.9539C13.2302 19.8647 13.1597 19.7588 13.1117 19.6423C13.0637 19.5257 13.039 19.4008 13.0391 19.2747C13.039 19.1485 13.0636 19.0236 13.1117 18.907C13.1597 18.7905 13.2301 18.6846 13.319 18.5954C13.4078 18.5062 13.5133 18.4354 13.6294 18.3872C13.7455 18.339 13.8699 18.3142 13.9955 18.3143C14.1211 18.3142 14.2456 18.339 14.3616 18.3872C14.4777 18.4354 14.5832 18.5061 14.672 18.5953C14.7609 18.6845 14.8313 18.7904 14.8793 18.907C14.9274 19.0235 14.952 19.1484 14.9519 19.2746C14.952 19.4007 14.9274 19.5256 14.8793 19.6422C14.8313 19.7587 14.7609 19.8646 14.672 19.9538C14.5832 20.043 14.4777 20.1137 14.3616 20.1619C14.2456 20.2102 14.1211 20.235 13.9955 20.2349Z" fill="#BBBBBB"/>
</g>
<defs>
<clipPath id="clip0_1175_4002">
<rect width="22" height="22" fill="white"/>
</clipPath>
</defs>
</svg>
