<svg width="22" height="22" viewBox="0 0 22 22" fill="none" xmlns="http://www.w3.org/2000/svg">
<g clip-path="url(#clip0_1175_4005)">
<path d="M18.0883 7.3442C17.8542 7.26388 17.6181 7.18946 17.3802 7.12103C17.4201 6.95775 17.4569 6.79644 17.4896 6.63797C18.0256 4.03571 17.6752 1.93928 16.4782 1.24903C15.3305 0.587315 13.4535 1.2773 11.5579 2.92704C11.3711 3.08992 11.1884 3.25749 11.0101 3.4296C10.8907 3.31515 10.7692 3.20293 10.6456 3.09298C8.65893 1.32904 6.6676 0.585596 5.47187 1.27782C4.32521 1.9416 3.98568 3.91239 4.4683 6.37862C4.51631 6.62287 4.57053 6.86586 4.63089 7.10736C4.34902 7.18746 4.07703 7.2727 3.81672 7.36345C1.48748 8.17556 0 9.4482 0 10.7683C0 12.1317 1.59688 13.4992 4.02289 14.3284C4.21957 14.3953 4.41789 14.4574 4.61766 14.5145C4.55278 14.7746 4.49518 15.0364 4.44492 15.2997C3.98482 17.7232 4.34412 19.6474 5.48768 20.307C6.6688 20.9881 8.6512 20.2881 10.5814 18.6007C10.738 18.4635 10.891 18.3224 11.0405 18.1776C11.2337 18.364 11.432 18.5449 11.6352 18.7202C13.505 20.3291 15.3516 20.9788 16.4941 20.3174C17.6741 19.6343 18.0576 17.5672 17.5597 15.0522C17.5205 14.8552 17.4765 14.6592 17.4278 14.4643C17.567 14.423 17.7036 14.3806 17.8368 14.3364C20.3589 13.5008 21.9999 12.1499 21.9999 10.7683C21.9999 9.44339 20.4644 8.16215 18.0883 7.3442ZM17.5413 13.4444C17.421 13.4842 17.2976 13.5226 17.1718 13.5599C16.8933 12.6785 16.5176 11.7413 16.0578 10.7728C16.4966 9.82753 16.8578 8.90224 17.1285 8.02655C17.3535 8.09169 17.5719 8.16035 17.7824 8.23279C19.8183 8.9337 21.0601 9.96984 21.0601 10.7683C21.0601 11.6187 19.719 12.7227 17.5413 13.4444ZM16.6378 15.2348C16.8579 16.3468 16.8893 17.3523 16.7435 18.1383C16.6125 18.8447 16.349 19.3155 16.0231 19.5041C15.3299 19.9055 13.8472 19.3838 12.2482 18.0078C12.0592 17.8448 11.8747 17.6766 11.695 17.5033C12.315 16.8254 12.9345 16.0373 13.5391 15.1619C14.6027 15.0675 15.6075 14.9132 16.5187 14.7026C16.5625 14.879 16.6023 15.0565 16.6378 15.2348ZM7.50024 19.4348C6.82289 19.6739 6.28338 19.6808 5.95724 19.4928C5.2633 19.0926 4.97481 17.5475 5.36832 15.4751C5.41509 15.2302 5.46865 14.9866 5.52893 14.7447C6.43007 14.9441 7.42754 15.0874 8.49359 15.1738C9.10237 16.0304 9.73976 16.8177 10.3821 17.507C10.2456 17.6391 10.1059 17.7679 9.96303 17.8931C9.10942 18.6392 8.25409 19.1685 7.50024 19.4348ZM4.32693 13.4391C3.25418 13.0724 2.36825 12.5959 1.76102 12.0759C1.21532 11.6087 0.939894 11.1447 0.939894 10.7683C0.939894 9.96718 2.13416 8.94538 4.1261 8.25093C4.36784 8.16671 4.62084 8.08722 4.88337 8.01262C5.15872 8.90809 5.51982 9.84437 5.95561 10.7911C5.51415 11.7519 5.14789 12.7032 4.86988 13.6092C4.68753 13.557 4.50649 13.5003 4.32693 13.4391ZM5.39066 6.19806C4.97722 4.08513 5.25179 2.49125 5.94281 2.09121C6.67877 1.66514 8.30625 2.27263 10.0216 3.79578C10.1335 3.89532 10.2435 3.99689 10.3517 4.10042C9.71252 4.7868 9.08097 5.56823 8.47761 6.41969C7.44292 6.5156 6.4525 6.6696 5.54191 6.87593C5.48581 6.65131 5.43538 6.42523 5.39066 6.19806ZM14.8804 8.54139C14.6654 8.16988 14.4423 7.80305 14.2114 7.44114C14.9133 7.52992 15.5859 7.64773 16.2174 7.79176C16.0279 8.39951 15.7915 9.03485 15.5134 9.68625C15.31 9.30046 15.099 8.91876 14.8804 8.54139ZM11.0105 4.77211C11.444 5.24175 11.8781 5.76606 12.3052 6.33496C11.4389 6.29405 10.5712 6.29388 9.70496 6.33444C10.1324 5.77078 10.5703 5.24717 11.0105 4.77211ZM7.11576 8.54784C6.89992 8.92217 6.69284 9.30148 6.49469 9.68547C6.22107 9.03639 5.98689 8.39814 5.79568 7.7818C6.42337 7.64138 7.09273 7.52656 7.7902 7.43942C7.55674 7.80354 7.33187 8.17317 7.11576 8.54784ZM7.81022 14.164C7.08964 14.0836 6.41022 13.9747 5.78271 13.838C5.97692 13.2107 6.21626 12.5589 6.49581 11.8959C6.69474 12.2801 6.90268 12.6597 7.11946 13.0342C7.34238 13.4192 7.57321 13.7963 7.81022 14.164ZM11.0365 16.8306C10.591 16.3501 10.1467 15.8184 9.71278 15.2466C10.134 15.2631 10.5635 15.2715 10.9999 15.2715C11.4484 15.2715 11.8916 15.2614 12.3279 15.242C11.8995 15.8241 11.467 16.3566 11.0365 16.8306ZM15.5222 11.862C15.8163 12.5323 16.0641 13.1807 16.2609 13.7973C15.6231 13.9429 14.9344 14.0601 14.2088 14.1472C14.4413 13.7785 14.6664 13.4053 14.8841 13.0277C15.1054 12.6439 15.3182 12.2553 15.5222 11.862ZM14.07 12.5582C13.7368 13.1371 13.3848 13.705 13.0147 14.261C12.3441 14.3085 11.6721 14.3321 10.9999 14.3318C10.3153 14.3318 9.64936 14.3104 9.0081 14.2688C8.62828 13.7141 8.26957 13.1452 7.93277 12.5633C7.59754 11.9846 7.28451 11.3933 6.99416 10.7907C7.28377 10.188 7.59594 9.59645 7.93002 9.01723L7.92993 9.01731C8.26388 8.43794 8.61972 7.87147 8.99667 7.31911C9.65091 7.26961 10.3218 7.24383 10.9999 7.24383C11.681 7.24383 12.3529 7.26987 13.0069 7.31971C13.3801 7.87124 13.7336 8.43577 14.067 9.01224C14.4021 9.59019 14.7184 10.1789 15.0154 10.7774C14.7215 11.382 14.4062 11.976 14.07 12.5582ZM16.0088 2.0632C16.7454 2.48807 17.032 4.2014 16.5691 6.44822C16.5395 6.59157 16.5064 6.73757 16.4703 6.88564C15.5574 6.67493 14.5663 6.51826 13.5286 6.4209C12.9242 5.56006 12.2978 4.77744 11.669 4.09991C11.8338 3.94105 12.0025 3.78632 12.175 3.63585C13.7992 2.22244 15.3172 1.66436 16.0088 2.0632ZM10.9999 8.80376C12.0849 8.80376 12.9645 9.68333 12.9645 10.7683C12.9645 11.8532 12.0849 12.7328 10.9999 12.7328C9.91499 12.7328 9.03542 11.8532 9.03542 10.7683C9.03542 9.68333 9.91499 8.80376 10.9999 8.80376Z" fill="#BBBBBB"/>
</g>
<defs>
<clipPath id="clip0_1175_4005">
<rect width="22" height="19.5937" fill="white" transform="translate(0 1)"/>
</clipPath>
</defs>
</svg>
