<svg width="20" height="22" viewBox="0 0 20 22" fill="none" xmlns="http://www.w3.org/2000/svg">
<g clip-path="url(#clip0_1175_4012)">
<g clip-path="url(#clip1_1175_4012)">
<path d="M15.4386 0.978241H1.66271C0.73829 0.978241 -0.0119629 1.73519 -0.0119629 2.65291V17.8455C-0.0119629 18.77 0.744989 19.5202 1.66271 19.5202H10.7394C10.6389 15.0053 12.1796 6.24341 15.4419 0.964844L15.4386 0.978241Z" fill="#BBBBBB"/>
<path d="M14.9363 1.4707H1.66289C1.34782 1.47159 1.0459 1.59714 0.823108 1.81993C0.600316 2.04273 0.474761 2.34464 0.473877 2.65972V16.7437C3.48159 15.5882 7.99315 14.5934 11.1147 14.6403C12.0771 10.1656 13.3519 5.76473 14.9363 1.4707Z" fill="#BBBBBB" fill-opacity="0.733333"/>
<path d="M18.6539 0.482788C17.7094 -0.354548 16.5673 -0.0196135 15.4385 0.978491L14.9361 1.46749C13.0069 3.51059 11.2518 7.30205 10.6624 10.1992C10.8724 10.6581 11.0384 11.1358 11.1581 11.6261L11.2318 11.961L11.3054 12.3026C11.3054 12.3026 11.2887 12.2356 11.2184 12.0347L11.1715 11.9007C11.1621 11.8759 11.152 11.8513 11.1413 11.827C10.9492 11.4254 10.7403 11.032 10.515 10.648C10.3931 11.0042 10.2781 11.3626 10.17 11.7232C10.6121 12.5337 10.8801 13.9204 10.8801 13.9204C10.8801 13.9204 10.8566 13.8299 10.7461 13.5184C10.6456 13.2404 10.1566 12.3797 10.0427 12.1787C9.84177 12.9155 9.76474 13.4113 9.83508 13.5318C9.96905 13.7663 10.103 14.2017 10.2202 14.617C10.4011 15.3535 10.5487 16.0978 10.6624 16.8477L10.6791 17.0553C10.6444 17.8929 10.6612 18.7318 10.7293 19.5673C10.8164 20.6157 10.9806 21.5167 11.1882 21.999L11.3289 21.9219C11.0274 20.9707 10.9002 19.7281 10.9538 18.2912C11.0375 16.0974 11.5399 13.4514 12.4744 10.6949C14.0586 6.49821 16.2424 3.15556 18.2453 1.56128C16.4199 3.20915 13.9514 8.54131 13.2146 10.5141C12.3873 12.7246 11.8011 14.8012 11.4461 16.7874C12.0557 14.9252 14.0251 14.1213 14.0251 14.1213C14.0251 14.1213 14.9964 12.9289 16.1218 11.2241L13.9615 11.8002L13.2648 12.1084C13.2648 12.1084 15.04 11.0265 16.5706 10.5342C18.6706 7.22836 20.9582 2.52924 18.6539 0.479439" fill="#909090"/>
</g>
</g>
<defs>
<clipPath id="clip0_1175_4012">
<rect width="19.61" height="22" fill="white"/>
</clipPath>
<clipPath id="clip1_1175_4012">
<rect width="19.6071" height="22" fill="white"/>
</clipPath>
</defs>
</svg>
