<svg width="26" height="22" viewBox="0 0 26 22" fill="none" xmlns="http://www.w3.org/2000/svg">
<g clip-path="url(#clip0_1175_4009)">
<path d="M13 3.021C9.53337 3.021 7.36663 4.75436 6.5 8.221C7.8 6.48763 9.31663 5.83763 11.05 6.271C12.0389 6.5182 12.7458 7.23574 13.5282 8.02986C14.8028 9.32366 16.2779 10.821 19.5 10.821C22.9666 10.821 25.1334 9.08763 26 5.621C24.7 7.35436 23.1834 8.00436 21.45 7.571C20.4611 7.32379 19.7542 6.60625 18.9718 5.81214C17.6972 4.51833 16.2221 3.021 13 3.021ZM6.5 10.821C3.03337 10.821 0.866633 12.5544 0 16.021C1.3 14.2876 2.81663 13.6376 4.55 14.071C5.53891 14.3182 6.24579 15.0357 7.02823 15.8299C8.30284 17.1237 9.77793 18.621 13 18.621C16.4666 18.621 18.6334 16.8876 19.5 13.421C18.2 15.1544 16.6834 15.8044 14.95 15.371C13.9611 15.1238 13.2542 14.4063 12.4718 13.6121C11.1972 12.3183 9.72207 10.821 6.5 10.821Z" fill="#BBBBBB"/>
</g>
<defs>
<clipPath id="clip0_1175_4009">
<rect width="26" height="15.6416" fill="white" transform="translate(0 3)"/>
</clipPath>
</defs>
</svg>
