<svg width="22" height="22" viewBox="0 0 22 22" fill="none" xmlns="http://www.w3.org/2000/svg">
<g clip-path="url(#clip0_1175_4003)">
<g clip-path="url(#clip1_1175_4003)">
<path d="M0 11V0H22V22H0" fill="#BBBBBB"/>
<path d="M4.82349 11.0383V11.9348H7.68349V20.0748H9.71299V11.9348H12.573V11.0548C12.573 10.5598 12.573 10.1583 12.551 10.1473C12.551 10.1308 10.8075 10.1253 8.68999 10.1253L4.83999 10.1418V11.0438L4.82349 11.0383ZM17.677 10.1198C18.238 10.2518 18.667 10.5048 19.052 10.9063C19.2555 11.1263 19.558 11.5113 19.58 11.6103C19.58 11.6433 18.6285 12.2868 18.051 12.6443C18.029 12.6608 17.941 12.5673 17.853 12.4243C17.567 12.0173 17.2755 11.8413 16.819 11.8083C16.159 11.7643 15.719 12.1108 15.719 12.6883C15.719 12.8643 15.752 12.9633 15.818 13.1063C15.9665 13.4088 16.2415 13.5903 17.094 13.9643C18.667 14.6408 19.349 15.0863 19.7615 15.7243C20.229 16.4393 20.3335 17.5613 20.02 18.4028C19.668 19.3213 18.81 19.9428 17.5835 20.1463C17.1985 20.2123 16.3185 20.2013 15.906 20.1298C15.026 19.9648 14.1845 19.5248 13.6675 18.9583C13.464 18.7383 13.0735 18.1498 13.0955 18.1113L13.3045 17.9793L14.1295 17.5008L14.751 17.1378L14.894 17.3303C15.0755 17.6163 15.4825 18.0013 15.719 18.1333C16.434 18.5018 17.391 18.4523 17.864 18.0233C18.0675 17.8363 18.1555 17.6383 18.1555 17.3633C18.1555 17.1103 18.117 16.9948 17.9905 16.8023C17.8145 16.5603 17.4625 16.3623 16.4725 15.9223C15.334 15.4383 14.85 15.1303 14.399 14.6573C14.1405 14.3713 13.904 13.9258 13.794 13.5573C13.7115 13.2383 13.684 12.4573 13.761 12.1438C13.9975 11.0438 14.828 10.2738 16.016 10.0538C16.401 9.97677 17.3085 10.0098 17.688 10.1088L17.677 10.1198Z" fill="black"/>
</g>
</g>
<defs>
<clipPath id="clip0_1175_4003">
<rect width="22" height="22" fill="white"/>
</clipPath>
<clipPath id="clip1_1175_4003">
<rect width="22" height="22" rx="3" fill="white"/>
</clipPath>
</defs>
</svg>
