<svg width="22" height="22" viewBox="0 0 22 22" fill="none" xmlns="http://www.w3.org/2000/svg">
<g clip-path="url(#clip0_1175_4020)">
<g clip-path="url(#clip1_1175_4020)">
<path d="M11.0006 22C4.90459 22 -0.0454147 17.1415 0.000561849 11C0.0465384 4.85848 4.67556 0 11.0006 0C17.326 0 22.0006 4.95 22.0006 11C22.0006 17.05 17.0965 22 11.0006 22ZM14.2546 20.304L11.1381 11.9165L8.20459 20.4875C10.359 20.992 11.8256 21.129 14.2546 20.304ZM6.64654 19.846L1.97154 7.05848C1.32959 8.43348 1.19252 9.57945 1.10056 11C1.14654 14.758 3.25459 18.1955 6.64654 19.846ZM20.855 11C20.9006 8.57098 19.801 6.64598 19.709 6.37098C19.801 8.25043 19.5256 9.2125 19.205 10.267L15.9965 19.4795C20.03 17.05 20.8086 13.429 20.9006 11H20.855ZM10.68 10.5875L9.12154 6.325L7.97556 6.23348C7.51751 5.9125 7.79209 5.40848 8.11306 5.40848C10.1756 5.54598 11.3211 5.54598 13.384 5.40848C13.8885 5.40848 14.0256 6.14195 13.4296 6.23348L12.3296 6.325L15.9042 16.8665L17.5997 11.0915C17.6917 8.57098 17.0037 8.29598 16.0872 6.4625C15.3537 5.04152 16.1332 3.66652 17.5542 3.62098C16.4077 2.52098 14.0707 1.14598 10.9997 1.1C7.92873 1.05402 4.6747 2.6125 2.7497 5.54598L6.14165 5.45445C6.55415 5.63793 6.37068 6.23348 6.14165 6.27945L4.95013 6.37098L8.52513 17.096L10.68 10.5875Z" fill="#BBBBBB"/>
</g>
</g>
<defs>
<clipPath id="clip0_1175_4020">
<rect width="22" height="22" fill="white"/>
</clipPath>
<clipPath id="clip1_1175_4020">
<rect width="22" height="22" fill="white"/>
</clipPath>
</defs>
</svg>
